<svg width="512" height="512" viewBox="0 0 512 512" fill="none" xmlns="http://www.w3.org/2000/svg">
  <defs>
    <linearGradient id="g" x1="64" y1="48" x2="448" y2="464" gradientUnits="userSpaceOnUse">
      <stop stop-color="#00E5A0"/>
      <stop offset="0.5" stop-color="#00D4FF"/>
      <stop offset="1" stop-color="#A855F7"/>
    </linearGradient>
    <filter id="shadow" x="0" y="0" width="512" height="512" filterUnits="userSpaceOnUse" color-interpolation-filters="sRGB">
      <feDropShadow dx="0" dy="20" stdDeviation="24" flood-color="#000000" flood-opacity="0.35"/>
    </filter>
  </defs>
  <rect width="512" height="512" rx="120" fill="#05080F"/>
  <rect x="30" y="30" width="452" height="452" rx="100" fill="url(#g)" fill-opacity="0.08"/>
  <circle cx="256" cy="256" r="150" fill="url(#g)" filter="url(#shadow)"/>
  <circle cx="256" cy="256" r="120" fill="#0A0D12"/>
  <path d="M256 140L304 174L286 230H226L208 174L256 140Z" fill="#EAF4FF"/>
  <path d="M208 174L162 202L174 258L226 230L208 174Z" fill="#C9D6E6"/>
  <path d="M304 174L350 202L338 258L286 230L304 174Z" fill="#C9D6E6"/>
  <path d="M162 202L146 260L196 300L174 258L162 202Z" fill="#A8B9CB"/>
  <path d="M350 202L366 260L316 300L338 258L350 202Z" fill="#A8B9CB"/>
  <path d="M196 300L224 372H288L316 300L286 230H226L196 300Z" fill="#DCE8F6"/>
  <circle cx="256" cy="256" r="150" stroke="rgba(255,255,255,0.18)" stroke-width="6"/>
</svg>
